<svg xmlns="http://www.w3.org/2000/svg" version="1.1" xmlns:xlink="http://www.w3.org/1999/xlink" xmlns:svgjs="http://svgjs.dev/svgjs" width="1500" height="1500" viewBox="0 0 1500 1500"><rect width="1500" height="1500" fill="#000000"></rect><g transform="matrix(0.6666666666666666,0,0,0.6666666666666666,250,250)"><svg viewBox="0 0 280 280" data-background-color="#ffd7ea" preserveAspectRatio="xMidYMid meet" height="1500" width="1500" xmlns="http://www.w3.org/2000/svg" xmlns:xlink="http://www.w3.org/1999/xlink"><g id="tight-bounds" transform="matrix(1,0,0,1,0,0)"><svg viewBox="0 0 280 280" height="280" width="280"><g><svg viewBox="0 0 280 280" height="280" width="280"><g><svg viewBox="0 0 280 280" height="280" width="280"><g id="textblocktransform"><svg viewBox="0 0 280 280" height="280" width="280" id="textblock"><g><svg viewBox="0 0 280 280" height="280" width="280"><g transform="matrix(1,0,0,1,74.00336708925556,74.00336708925556)"><svg viewBox="0 0 131.99326582148888 131.99326582148888" height="131.99326582148888" width="131.99326582148888"><g id="icon-0"><svg xmlns="http://www.w3.org/2000/svg" xmlns:xlink="http://www.w3.org/1999/xlink" version="1.1" baseProfile="tiny" x="0" y="0" viewBox="0 0 100 100" xml:space="preserve" height="131.99326582148888" width="131.99326582148888" class="icon-jxe-0" data-fill-palette-color="accent" id="jxe-0"><path d="M100 52.993V46.989H53.466V43.042H99.371S95.705 5.401 57.38 0.572V35.214H89.041S83.708 20.724 75.71 17.393V29.385H63.546V8.566S85.707 11.731 92.873 37.879L53.466 37.647V0H47.461V37.611L8.058 37.379S13.389 14.062 37.884 7.567L37.551 29.385H25.554V17.061S15.556 22.057 11.557 35.215H43.05V0.739S5.724 6.235 0.559 43.042H47.461V46.989H0V52.993H47.461V57.53H0.642C5.808 94.336 43.134 99.832 43.134 99.832V65.357H11.64C15.639 78.515 25.637 83.511 25.637 83.511V71.187H37.635L37.968 93.005C13.473 86.51 8.141 63.192 8.141 63.192L47.461 62.961V99.949H53.466V62.925L92.956 62.694C85.791 88.841 63.629 92.007 63.629 92.007V71.187H75.794V83.178C83.792 79.848 89.124 65.359 89.124 65.359H57.463V100C95.789 95.171 99.455 57.53 99.455 57.53H53.466V52.993z" fill="#ffffff" data-fill-palette-color="accent"></path></svg></g></svg></g><g id="text-0"><path d="M32.471 107.105v0c-0.7 2.044-1.77 3.457-3.208 4.239-1.442 0.773-3.063 0.851-4.864 0.234v0c-1.221-0.419-2.15-1.071-2.787-1.958-0.63-0.884-0.955-2.009-0.975-3.374-0.022-1.359 0.289-2.976 0.932-4.851v0l1.31-3.824-1.917-0.657c-1.377-0.472-2.556-0.458-3.534 0.043-0.979 0.5-1.735 1.526-2.267 3.077v0c-0.395 1.153-0.468 2.218-0.217 3.196 0.25 0.977 0.724 1.881 1.421 2.711v0l-2.307 1.216c-0.843-0.874-1.444-2.016-1.803-3.428-0.355-1.403-0.232-2.98 0.368-4.731v0c0.797-2.325 1.994-3.948 3.591-4.87 1.601-0.914 3.427-1.019 5.478-0.317v0l10.647 3.649 0.759-2.216 2.627 0.901-0.58 1.692c-0.367 1.072-0.911 1.763-1.63 2.073-0.728 0.315-1.537 0.389-2.426 0.224v0l-0.238-0.04-0.064 0.187c1.041 0.802 1.698 1.801 1.972 2.995 0.271 1.2 0.175 2.476-0.288 3.829zM30.088 105.735v0c0.342-0.997 0.487-1.929 0.436-2.797-0.049-0.873-0.267-1.62-0.653-2.239-0.386-0.62-0.907-1.042-1.561-1.267v0l-3.188-1.092-1.361 3.973c-0.583 1.701-0.759 3.037-0.528 4.008 0.223 0.975 0.808 1.625 1.756 1.949v0l0.785 0.269c0.954 0.327 1.813 0.228 2.578-0.297 0.763-0.519 1.342-1.354 1.736-2.507z" fill="#ffffff" data-fill-palette-color="primary"></path><path d="M71.941 51.869l-2.569 1.86-11.996-16.568 2.57-1.861 1.952 2.698 0.129-0.093c-0.274-1.233-0.244-2.398 0.092-3.495 0.335-1.088 1.124-2.082 2.367-2.982v0c1.713-1.24 3.466-1.667 5.258-1.282 1.794 0.377 3.419 1.571 4.875 3.583v0l7.696 10.63-2.57 1.86-7.371-10.181c-1.066-1.473-2.189-2.356-3.369-2.649-1.171-0.291-2.377 0.013-3.621 0.914v0c-0.683 0.495-1.253 1.078-1.709 1.75-0.462 0.676-0.715 1.388-0.76 2.136-0.04 0.753 0.194 1.482 0.705 2.186v0z" fill="#ffffff" data-fill-palette-color="primary"></path><path d="M139.338 29.361l-3.172-0.033 0.313-29.328 3.172 0.034-0.198 18.586 0.158 0.002 3.169-3.455 5.857-6.163 3.844 0.041-7.665 8.002 8.198 12.46-3.844-0.041-6.667-10.497-3.087 3.1z" fill="#ffffff" data-fill-palette-color="primary"></path><path d="M208.351 52.673v0c-1.69-1.227-2.645-2.759-2.866-4.596-0.212-1.839 0.412-3.763 1.871-5.773v0l7.71-10.62 2.567 1.863-7.385 10.172c-1.072 1.477-1.559 2.82-1.461 4.032 0.098 1.211 0.768 2.267 2.01 3.168v0c0.688 0.499 1.417 0.858 2.187 1.075 0.77 0.217 1.518 0.231 2.242 0.04 0.73-0.187 1.36-0.645 1.89-1.375v0l8.313-11.451 2.567 1.863-12.017 16.553-2.567-1.863 1.957-2.695-0.128-0.093c-0.898 0.553-1.924 0.895-3.078 1.026-1.15 0.126-2.42-0.316-3.812-1.326z" fill="#ffffff" data-fill-palette-color="primary"></path><path d="M248.386 107.459l-1.032-3 19.342-6.656 1.032 2.999-3.56 1.226 0.065 0.186c0.7 0.01 1.399 0.159 2.098 0.449 0.705 0.287 1.355 0.749 1.951 1.387 0.594 0.632 1.072 1.474 1.433 2.527v0l0.399 1.159-2.999 1.032-0.608-1.766c-0.369-1.071-0.829-1.944-1.382-2.618-0.555-0.68-1.139-1.144-1.754-1.392-0.621-0.246-1.243-0.262-1.866-0.048v0z" fill="#ffffff" data-fill-palette-color="primary"></path><path d="M4.283 144.145c0-6.188 5.016-11.204 11.204-11.204 6.188 0 11.204 5.016 11.203 11.204 0 6.188-5.016 11.204-11.203 11.204-6.188 0-11.204-5.016-11.204-11.204z" fill="#ffffff" data-fill-palette-color="primary"></path><path d="M253.31 144.145c0-6.188 5.016-11.204 11.203-11.204 6.188 0 11.204 5.016 11.204 11.204 0 6.188-5.016 11.204-11.204 11.204-6.188 0-11.204-5.016-11.203-11.204z" fill="#ffffff" data-fill-palette-color="primary"></path></g><g id="text-1"><path d="M11.839 188.862v0c-0.755-2.172-0.784-4.052-0.088-5.64 0.688-1.592 1.984-2.719 3.888-3.381v0c1.301-0.452 2.503-0.514 3.607-0.187 1.11 0.325 2.119 1.049 3.025 2.171 0.908 1.128 1.707 2.685 2.398 4.669v0l1.405 4.042 2.025-0.704c1.456-0.506 2.429-1.287 2.92-2.344 0.495-1.065 0.458-2.415-0.111-4.052v0c-0.424-1.22-1.063-2.155-1.917-2.807-0.848-0.654-1.833-1.1-2.955-1.337v0l1.13-2.527c1.277 0.184 2.525 0.744 3.744 1.68 1.214 0.945 2.144 2.345 2.788 4.199v0c0.854 2.458 0.916 4.592 0.185 6.401-0.737 1.812-2.192 3.095-4.363 3.85v0l-11.267 3.917 0.815 2.342-2.782 0.967-0.619-1.783c-0.396-1.139-0.393-2.074 0.007-2.806 0.395-0.73 1.021-1.317 1.878-1.762v0l0.22-0.118-0.071-0.205c-1.392 0.009-2.593-0.396-3.603-1.217-1.011-0.82-1.764-1.943-2.259-3.368zM14.715 188.438v0c0.368 1.058 0.857 1.934 1.468 2.628 0.609 0.688 1.281 1.166 2.015 1.433 0.726 0.264 1.435 0.275 2.126 0.036v0l3.369-1.172-1.46-4.2c-0.627-1.805-1.353-3.038-2.175-3.7-0.823-0.662-1.736-0.819-2.738-0.472v0l-0.84 0.292c-1.002 0.348-1.654 0.99-1.957 1.926-0.296 0.933-0.233 2.009 0.192 3.229z" fill="#ffffff" data-fill-palette-color="secondary"></path><path d="M59.735 253.558l-2.733-1.971 12.682-17.585 2.733 1.971-2.064 2.862 0.137 0.098c1.148-0.691 2.329-1.05 3.542-1.076 1.209-0.021 2.471 0.442 3.785 1.39v0c1.822 1.314 2.837 2.936 3.046 4.865 0.214 1.933-0.45 3.968-1.991 6.105v0l-8.133 11.277-2.725-1.965 7.792-10.804c1.129-1.566 1.644-2.989 1.545-4.271-0.094-1.278-0.8-2.393-2.12-3.344v0c-0.727-0.524-1.505-0.903-2.336-1.137-0.827-0.239-1.627-0.256-2.401-0.05-0.764 0.204-1.418 0.683-1.961 1.436v0z" fill="#ffffff" data-fill-palette-color="secondary"></path><path d="M139.54 279.962l-3.369 0.038-0.352-31.096 3.369-0.038 0.223 19.713 0.168-0.002 3.278-3.743 6.052-6.66 4.081-0.047-7.927 8.658 8.973 13.013-4.081 0.046-7.309-10.966-3.193 3.357z" fill="#ffffff" data-fill-palette-color="secondary"></path><path d="M221.197 253.501v0c-1.794 1.297-3.652 1.751-5.576 1.362-1.924-0.389-3.658-1.651-5.202-3.787v0l-8.149-11.265 2.723-1.969 7.806 10.793c1.131 1.564 2.323 2.499 3.577 2.804 1.259 0.301 2.547-0.025 3.866-0.979v0c0.726-0.525 1.325-1.141 1.797-1.849 0.476-0.702 0.738-1.453 0.786-2.251 0.043-0.795-0.214-1.577-0.77-2.346v0l-8.791-12.155 2.723-1.969 12.705 17.568-2.722 1.969-2.067-2.859-0.137 0.099c0.265 1.085 0.272 2.23 0.022 3.435-0.254 1.2-1.118 2.333-2.591 3.399z" fill="#ffffff" data-fill-palette-color="secondary"></path><path d="M268.128 188.181l-1.11 3.181-20.469-7.146 1.11-3.182 3.769 1.316 0.069-0.196c-0.577-0.467-1.063-1.052-1.46-1.755-0.39-0.701-0.628-1.51-0.712-2.426-0.077-0.92 0.078-1.933 0.465-3.04v0l0.43-1.232 3.172 1.108-0.652 1.866c-0.395 1.132-0.584 2.162-0.565 3.089 0.018 0.927 0.203 1.697 0.554 2.308 0.346 0.609 0.851 1.03 1.517 1.262v0z" fill="#ffffff" data-fill-palette-color="secondary"></path></g></svg></g></svg></g></svg></g><g></g></svg></g><defs></defs></svg><rect width="280" height="280" fill="none" stroke="none" visibility="hidden"></rect></g></svg></g></svg>